Coordinates
version=1
nRows=19
nColumns=38
inDegrees=no

Units are S.I. units (second, meters, Newtons, ...)
If the header above contains a line with 'inDegrees', this indicates whether rotational values are in degrees (yes) or radians (no).

endheader
time	pelvis_tilt	pelvis_list	pelvis_rotation	pelvis_tx	pelvis_ty	pelvis_tz	hip_flexion_r	hip_adduction_r	hip_rotation_r	knee_angle_r	ankle_angle_r	subtalar_angle_r	mtp_angle_r	hip_flexion_l	hip_adduction_l	hip_rotation_l	knee_angle_l	ankle_angle_l	subtalar_angle_l	mtp_angle_l	lumbar_extension	lumbar_bending	lumbar_rotation	arm_flex_r	arm_add_r	arm_rot_r	elbow_flex_r	pro_sup_r	wrist_flex_r	wrist_dev_r	arm_flex_l	arm_add_l	arm_rot_l	elbow_flex_l	pro_sup_l	wrist_flex_l	wrist_dev_l
0.61	-0.209561	-0.0502178	-0.0649558	1.26133	1.00306	-0.318946	0.546198	0.159519	0.0739977	-0.0657574	0.220926	-0.0297321	-0.00478765	-0.0776351	0.126362	0.198738	-0.736889	-0.219075	-0.0337426	-0.011012	-0.0359523	0.170491	-0.115903	-0.787534	-0.217459	-0.156329	2.31466	1.64287	-0.00666416	-0.000370953	-0.201077	-0.27102	0.259168	2.31854	1.68341	0.0156172	0.0108138
0.62	-0.205098	-0.0497358	-0.0627201	1.2608	0.998251	-0.319391	0.576528	0.158704	0.0587371	-0.161147	0.201573	-0.0297321	-0.00478765	-0.0533818	0.118835	0.169713	-0.836174	-0.210098	-0.0337426	-0.011012	-0.041571	0.16872	-0.105659	-0.776733	-0.221403	-0.156486	2.3202	1.64375	-0.00666416	-0.000370953	-0.221346	-0.272442	0.252939	2.30727	1.66885	0.0156172	0.0108138
0.63	-0.199354	-0.0507739	-0.061018	1.25995	0.99257	-0.319693	0.605838	0.159833	0.0447104	-0.262407	0.188717	-0.0297321	-0.00478765	-0.0279407	0.10715	0.140503	-0.934361	-0.198163	-0.0337426	-0.011012	-0.0498507	0.168387	-0.0940295	-0.761306	-0.226602	-0.155715	2.3217	1.64477	-0.00666416	-0.000370953	-0.241456	-0.271378	0.243544	2.29052	1.65829	0.0156172	0.0108138
0.64	-0.192317	-0.0533251	-0.0598271	1.2588	0.986147	-0.319871	0.633723	0.162904	0.03207	-0.368689	0.182429	-0.0297321	-0.00478765	-0.00134586	0.0914466	0.111377	-1.03135	-0.183246	-0.0337426	-0.011012	-0.0608011	0.169495	-0.0810395	-0.741254	-0.233032	-0.154024	2.31917	1.64594	-0.00666416	-0.000370953	-0.261392	-0.267841	0.231009	2.26828	1.65177	0.0156172	0.0108138
0.65	-0.183887	-0.0573896	-0.0590844	1.25741	0.979255	-0.319945	0.659078	0.167895	0.0212007	-0.477626	0.182896	-0.0297321	-0.00478765	0.0263416	0.0721878	0.0831156	-1.12681	-0.16532	-0.0337426	-0.011012	-0.0743704	0.172039	-0.0667653	-0.716625	-0.240595	-0.151457	2.31263	1.64731	-0.00666416	-0.000370953	-0.281125	-0.261889	0.215431	2.24057	1.6494	0.0156172	0.0108138
0.66	-0.174018	-0.0628345	-0.0586414	1.25584	0.972264	-0.319955	0.680202	0.174736	0.0126024	-0.585528	0.19042	-0.0297321	-0.00478765	0.0550524	0.0502891	0.0570886	-1.22016	-0.144418	-0.0337426	-0.011012	-0.0903922	0.175975	-0.0513487	-0.687598	-0.249064	-0.148119	2.30224	1.64895	-0.00666416	-0.000370953	-0.300637	-0.253682	0.19704	2.20755	1.65129	0.0156172	0.0108138
0.67	-0.162841	-0.0693811	-0.0582409	1.25414	0.965497	-0.31996	0.695358	0.183137	0.00660775	-0.688413	0.205357	-0.0297321	-0.00478765	0.0847837	0.0271961	0.0350848	-1.31048	-0.120748	-0.0337426	-0.011012	-0.108478	0.181067	-0.0350335	-0.654623	-0.258017	-0.14421	2.2884	1.65092	-0.00666416	-0.000370953	-0.319979	-0.243549	0.176249	2.16965	1.65739	0.0156172	0.0108138
0.68	-0.150695	-0.0765428	-0.0575166	1.25235	0.959129	-0.320037	0.703194	0.192525	0.00319196	-0.782656	0.227789	-0.0297321	-0.00478765	0.115721	0.00471356	0.0189433	-1.39665	-0.094766	-0.0337426	-0.011012	-0.127884	0.186861	-0.0181481	-0.618539	-0.266823	-0.140049	2.27192	1.65324	-0.00666416	-0.000370953	-0.339307	-0.232054	0.153696	2.12779	1.66731	0.0156172	0.0108138
0.69	-0.138215	-0.0836342	-0.0560367	1.25048	0.953214	-0.320261	0.703043	0.202085	0.00196716	-0.865411	0.257228	-0.0297321	-0.00478765	0.148328	-0.0153431	0.0100705	-1.47742	-0.067206	-0.0337426	-0.011012	-0.147463	0.192727	-0.00103606	-0.580637	-0.274675	-0.136085	2.25411	1.65591	-0.00666416	-0.000370953	-0.358899	-0.219999	0.130254	2.08345	1.68008	0.0156172	0.0108138
0.7	-0.126406	-0.0899246	-0.0534037	1.24855	0.947809	-0.320664	0.69503	0.21089	0.00235911	-0.934834	0.292508	-0.0297321	-0.00478765	0.183316	-0.0315324	0.00899106	-1.55155	-0.0390058	-0.0337426	-0.011012	-0.16577	0.197926	0.0160541	-0.54262	-0.280691	-0.132881	2.23678	1.6588	-0.00666416	-0.000370953	-0.379138	-0.208376	0.106963	2.03871	1.69412	0.0156172	0.0108138
0.71	-0.116348	-0.0947769	-0.04942	1.2466	0.943001	-0.321219	0.680011	0.21809	0.00386251	-0.990075	0.331867	-0.0297321	-0.00478765	0.221528	-0.0430957	0.0150846	-1.61791	-0.0111676	-0.0337426	-0.011012	-0.181209	0.201717	0.0330871	-0.506442	-0.284059	-0.131025	2.22207	1.6618	-0.00666416	-0.000370953	-0.400489	-0.198253	0.0849003	1.9961	1.7073	0.0156172	0.0108138
0.72	-0.109061	-0.0976932	-0.0442093	1.24468	0.938897	-0.32186	0.659268	0.22309	0.00624361	-1.03112	0.373131	-0.0297321	-0.00478765	0.263653	-0.0500841	0.0265902	-1.67547	0.0154182	-0.0337426	-0.011012	-0.192338	0.203461	0.0503093	-0.474038	-0.284197	-0.131007	2.21221	1.6648	-0.00666416	-0.000370953	-0.423458	-0.1906	0.0649947	1.95836	1.71733	0.0156172	0.0108138
0.73	-0.105302	-0.0984015	-0.0382573	1.2429	0.93559	-0.322494	0.634134	0.225613	0.00961458	-1.05848	0.413945	-0.0297321	-0.00478765	0.309976	-0.0532463	0.0408979	-1.72336	0.0401218	-0.0337426	-0.011012	-0.198128	0.202676	0.068206	-0.44701	-0.28089	-0.133062	2.20915	1.66787	-0.00666416	-0.000370953	-0.448552	-0.186129	0.0478533	1.92806	1.72228	0.0156172	0.0108138
0.74	-0.105443	-0.0968601	-0.0323249	1.24132	0.933163	-0.323034	0.605681	0.225675	0.0143657	-1.07297	0.451979	-0.0297321	-0.00478765	0.360206	-0.0537605	0.0550489	-1.76085	0.0626508	-0.0337426	-0.011012	-0.198125	0.199086	0.0873545	-0.42636	-0.274356	-0.137054	2.21417	1.67124	-0.00666416	-0.000370953	-0.476218	-0.185155	0.033667	1.90727	1.72094	0.0156172	0.0108138
0.75	-0.109427	-0.0932059	-0.0272672	1.24004	0.931699	-0.323415	0.574535	0.223491	0.0209903	-1.07542	0.485063	-0.0297321	-0.00478765	0.413457	-0.0529003	0.0663177	-1.78736	0.0830325	-0.0337426	-0.011012	-0.19247	0.192648	0.108213	-0.412347	-0.265238	-0.142435	2.22766	1.67526	-0.00666416	-0.000370953	-0.506774	-0.187543	0.02221	1.89722	1.71299	0.0156172	0.0108138
0.76	-0.116798	-0.0877137	-0.0238149	1.23913	0.931284	-0.323603	0.540856	0.219349	0.0298659	-1.06658	0.511259	-0.0297321	-0.00478765	0.468341	-0.0517112	0.0727183	-1.80254	0.101513	-0.0337426	-0.011012	-0.181818	0.183546	0.130923	-0.40451	-0.254508	-0.148312	2.249	1.68031	-0.00666416	-0.000370953	-0.540341	-0.19272	0.0129133	1.89822	1.69898	0.0156172	0.0108138
0.77	-0.126792	-0.0807286	-0.022392	1.23866	0.931986	-0.323601	0.504434	0.21349	0.0410528	-1.04712	0.528882	-0.0297321	-0.00478765	0.523153	-0.0507669	0.0733202	-1.8062	0.118415	-0.0337426	-0.011012	-0.167185	0.17214	0.155199	-0.401829	-0.243306	-0.153583	2.27673	1.68665	-0.00666416	-0.000370953	-0.576801	-0.199768	0.00497486	1.9096	1.68017	0.0156172	0.0108138
0.78	-0.138516	-0.072556	-0.0230223	1.23865	0.93384	-0.323446	0.46491	0.20603	0.0541593	-1.01768	0.536488	-0.0297321	-0.00478765	0.576113	-0.0500533	0.0683199	-1.79841	0.134	-0.0337426	-0.011012	-0.149742	0.158894	0.180343	-0.402987	-0.232762	-0.157117	2.30873	1.69442	-0.00666416	-0.000370953	-0.615804	-0.207552	-0.00251762	1.92991	1.65836	0.0156172	0.0108138
0.79	-0.151036	-0.0634304	-0.0253631	1.23914	0.936838	-0.323192	0.422062	0.196925	0.0683194	-0.978994	0.532901	-0.0297321	-0.00478765	0.625647	-0.0489976	0.0588647	-1.77936	0.148394	-0.0337426	-0.011012	-0.130549	0.144255	0.205363	-0.406638	-0.223823	-0.157919	2.34261	1.70363	-0.00666416	-0.000370953	-0.656791	-0.214887	-0.010456	1.9572	1.63546	0.0156172	0.0108138
